<?xml version="1.0" standalone="no"?>
<!DOCTYPE svg PUBLIC "-//W3C//DTD SVG 20010904//EN"
 "http://www.w3.org/TR/2001/REC-SVG-20010904/DTD/svg10.dtd">
<svg version="1.0" xmlns="http://www.w3.org/2000/svg"
 width="287.000000pt" height="287.000000pt" viewBox="0 0 287.000000 287.000000"
 preserveAspectRatio="xMidYMid meet">
<metadata>
Created by potrace 1.11, written by Peter Selinger 2001-2013
</metadata>
<g transform="translate(0.000000,287.000000) scale(0.100000,-0.100000)"
fill="#000000" stroke="none">
<path d="M1408 2864 c-2 -1 -41 -4 -88 -7 -330 -22 -640 -163 -883 -402 -75
-73 -207 -233 -207 -250 0 -3 -16 -31 -35 -61 -19 -30 -35 -58 -35 -62 0 -4
-8 -23 -18 -42 -47 -88 -105 -278 -117 -380 -4 -30 -9 -58 -12 -62 -5 -10 -6
-295 0 -305 3 -5 8 -37 11 -73 4 -36 11 -78 16 -95 60 -206 109 -323 181 -438
178 -281 442 -492 744 -595 168 -57 300 -78 475 -75 85 1 164 4 175 6 11 2 40
7 65 11 25 4 66 14 93 21 26 8 47 12 47 10 0 -2 37 10 83 26 398 145 698 436
860 834 16 38 53 169 62 217 3 13 7 34 10 48 2 14 7 39 10 55 4 17 8 89 9 160
4 162 -6 250 -49 413 -147 556 -651 981 -1230 1037 -75 8 -164 12 -167 9z
m217 -218 c17 -3 46 -9 65 -12 68 -11 211 -64 301 -110 105 -54 185 -112 283
-204 61 -58 176 -191 176 -204 0 -3 13 -24 29 -48 68 -103 136 -286 156 -423
4 -22 8 -51 11 -65 13 -74 1 -313 -20 -397 -3 -13 -8 -32 -11 -43 -3 -11 -7
-30 -10 -42 -19 -89 -106 -261 -189 -375 l-52 -73 -131 133 c-72 74 -137 133
-145 131 -8 -1 -42 -30 -76 -65 -46 -47 -59 -67 -52 -78 5 -9 63 -70 129 -135
67 -66 121 -123 121 -127 0 -19 -177 -134 -275 -179 -166 -76 -303 -104 -500
-104 -82 -1 -170 3 -195 7 -257 46 -481 159 -656 332 -71 70 -174 194 -174
209 0 3 -13 24 -28 48 -70 106 -141 310 -158 453 -26 218 6 453 87 638 40 91
123 231 163 274 l31 34 131 -130 c72 -72 135 -131 140 -131 5 0 40 30 76 68
l67 67 -135 138 -136 137 28 23 c121 95 317 196 433 222 40 9 158 34 181 38
33 6 297 0 335 -7z"/>
<path d="M1340 2380 c-9 -6 -13 -41 -13 -119 0 -72 -4 -111 -11 -112 -226 -15
-397 -184 -399 -394 -2 -185 101 -336 270 -397 47 -17 92 -22 238 -27 170 -6
182 -8 215 -31 45 -32 67 -58 79 -95 35 -103 4 -189 -89 -243 -43 -26 -50 -27
-200 -27 -132 0 -160 3 -190 19 -71 37 -106 84 -115 152 -2 20 -7 39 -9 42
-11 11 -189 4 -196 -8 -9 -14 -3 -70 12 -120 53 -172 182 -271 389 -299 3 -1
6 -48 6 -105 0 -57 4 -109 7 -115 5 -7 42 -11 96 -11 75 0 91 3 98 18 4 9 7
61 7 115 -1 53 1 98 4 98 3 1 21 3 40 5 39 5 110 28 152 50 75 38 166 142 186
209 24 84 29 118 26 168 -11 184 -143 338 -321 376 -29 6 -112 11 -184 11 -74
0 -148 5 -172 12 -54 17 -120 82 -132 134 -22 87 17 184 91 226 36 21 54 23
196 25 148 3 158 1 205 -22 56 -28 91 -74 106 -137 5 -23 14 -46 21 -50 7 -4
49 -8 95 -8 76 0 83 2 91 22 11 30 -6 114 -37 177 -50 103 -173 201 -267 215
-65 10 -87 15 -94 22 -3 3 -6 53 -7 110 0 57 -4 107 -8 111 -10 10 -171 12
-186 3z"/>
</g>
</svg>
